STARTFONT 2.1
FONT -FontForge-Space Grotesk-Book-R-Normal--38-360-75-75-P-208-ISO10646-1
SIZE 36 75 75
FONTBOUNDINGBOX 37 40 -1 -9
COMMENT "Generated by fontforge, http://fontforge.sourceforge.net"
COMMENT "Copyright 2020 The Space Grotesk Project Authors (https://github.com/floriankarsten/space-grotesk)"
STARTPROPERTIES 38
FOUNDRY "FontForge"
FAMILY_NAME "Space Grotesk"
WEIGHT_NAME "Book"
SLANT "R"
SETWIDTH_NAME "Normal"
ADD_STYLE_NAME ""
PIXEL_SIZE 38
POINT_SIZE 360
RESOLUTION_X 75
RESOLUTION_Y 75
SPACING "P"
AVERAGE_WIDTH 208
CHARSET_REGISTRY "ISO10646"
CHARSET_ENCODING "1"
FONTNAME_REGISTRY ""
CHARSET_COLLECTIONS "ISO10646-1"
FONT_NAME "SpaceGrotesk-Regular"
FACE_NAME "Space Grotesk Regular"
COPYRIGHT "Copyright 2020 The Space Grotesk Project Authors (https://github.com/floriankarsten/space-grotesk)"
FONT_VERSION "2.000"
FONT_ASCENT 30
FONT_DESCENT 8
UNDERLINE_POSITION -5
UNDERLINE_THICKNESS 2
X_HEIGHT 18
CAP_HEIGHT 26
RAW_ASCENT 800
RAW_DESCENT 200
RELATIVE_WEIGHT 40
RELATIVE_SETWIDTH 50
SUPERSCRIPT_X 0
SUPERSCRIPT_Y 13
SUPERSCRIPT_SIZE 22
SUBSCRIPT_X 0
SUBSCRIPT_Y 2
SUBSCRIPT_SIZE 22
AVG_LOWERCASE_WIDTH 209
AVG_UPPERCASE_WIDTH 237
ENDPROPERTIES
CHARS 94
STARTCHAR exclam
ENCODING 33
SWIDTH 253 0
DWIDTH 10 0
BBX 5 28 2 -1
BITMAP
70
70
70
70
70
70
70
70
70
70
70
70
70
70
70
70
70
70
70
70
00
00
30
78
F8
F8
78
20
ENDCHAR
STARTCHAR quotedbl
ENCODING 34
SWIDTH 425 0
DWIDTH 16 0
BBX 12 10 2 18
BITMAP
3040
79F0
F9F0
F9F0
79F0
1830
1830
1830
79E0
71C0
ENDCHAR
STARTCHAR numbersign
ENCODING 35
SWIDTH 628 0
DWIDTH 24 0
BBX 20 27 2 0
BITMAP
0E0600
0E0600
0E0600
0E0600
0E0600
0E0600
0E0600
0E0600
FFFFF0
FFFFF0
FFFFF0
0E0600
0E0600
0E0600
0E0600
0E0600
0E0600
FFFFF0
FFFFF0
0E0600
0E0600
0E0600
0E0600
0E0600
0E0600
0E0600
0E0600
ENDCHAR
STARTCHAR dollar
ENCODING 36
SWIDTH 613 0
DWIDTH 23 0
BBX 19 35 2 -4
BITMAP
00E000
00E000
00E000
00E000
07FC00
1FFF00
3FFF80
7CE7C0
78E1C0
70E1E0
F0E0E0
F0E0E0
70E0E0
70E0E0
7CE000
3FE000
1FF000
07FE00
00FF80
00EFC0
00E3E0
E0E0E0
E0E0E0
E0E0E0
E0E0E0
F0E0E0
70E1E0
78E3C0
3FEFC0
1FFF80
07FE00
00E000
00E000
00E000
00E000
ENDCHAR
STARTCHAR percent
ENCODING 37
SWIDTH 772 0
DWIDTH 29 0
BBX 27 28 1 -1
BITMAP
1F800100
3FE00380
78F00700
60700F00
E0301E00
E0301C00
E0303800
E0307000
6070F000
78F1E000
3FE1C000
1F838000
00070000
000F0000
001E0000
001C0C00
00387F80
0070FFC0
00E1C0E0
01E1C0E0
03C1C0E0
0381C0E0
0701C0E0
0E01C0E0
1E00E1C0
3C00FFC0
18007F80
08000800
ENDCHAR
STARTCHAR ampersand
ENCODING 38
SWIDTH 604 0
DWIDTH 23 0
BBX 20 27 2 0
BITMAP
01F000
1FF000
3FF000
7C0000
F00000
E00000
E00000
E00000
E00700
E00700
700700
780700
3FFFF0
0FFFF0
1FFFF0
780700
700700
E00700
E00700
E00700
E00700
E00700
F00700
780700
7FFF00
3FFF00
0FFF00
ENDCHAR
STARTCHAR quotesingle
ENCODING 39
SWIDTH 251 0
DWIDTH 10 0
BBX 5 10 2 18
BITMAP
30
78
F8
F8
78
18
18
18
78
70
ENDCHAR
STARTCHAR parenleft
ENCODING 40
SWIDTH 379 0
DWIDTH 14 0
BBX 12 37 2 -9
BITMAP
01F0
07F0
0FC0
1E00
3C00
7800
7000
7000
7000
E000
E000
E000
E000
E000
E000
E000
E000
E000
E000
E000
E000
E000
E000
E000
E000
E000
E000
E000
7000
7000
7000
3800
3C00
1F00
0FF0
07F0
00F0
ENDCHAR
STARTCHAR parenright
ENCODING 41
SWIDTH 377 0
DWIDTH 14 0
BBX 12 37 0 -9
BITMAP
F800
FE00
3F80
07C0
01C0
01E0
00E0
00F0
0070
0070
0070
0070
0070
0070
0070
0070
0070
0070
0070
0070
0070
0070
0070
0070
0070
0070
0070
0070
0070
00E0
00E0
01E0
03C0
0780
FF00
FE00
F000
ENDCHAR
STARTCHAR asterisk
ENCODING 42
SWIDTH 520 0
DWIDTH 20 0
BBX 16 17 2 10
BITMAP
0180
0180
2188
719C
39B8
1DB0
07E0
E3C7
FFFF
E3C7
07E0
1DB0
39B8
719C
2188
0180
0180
ENDCHAR
STARTCHAR plus
ENCODING 43
SWIDTH 620 0
DWIDTH 24 0
BBX 16 16 4 5
BITMAP
0380
0380
0380
0380
0380
0380
FFFF
FFFF
FFFF
0380
0380
0380
0380
0380
0380
0380
ENDCHAR
STARTCHAR comma
ENCODING 44
SWIDTH 251 0
DWIDTH 10 0
BBX 5 10 2 -5
BITMAP
30
78
F8
F8
78
18
18
18
78
70
ENDCHAR
STARTCHAR hyphen
ENCODING 45
SWIDTH 455 0
DWIDTH 17 0
BBX 11 3 3 8
BITMAP
FFE0
FFE0
FFE0
ENDCHAR
STARTCHAR period
ENCODING 46
SWIDTH 253 0
DWIDTH 10 0
BBX 5 6 2 -1
BITMAP
30
78
F8
F8
78
20
ENDCHAR
STARTCHAR slash
ENCODING 47
SWIDTH 370 0
DWIDTH 14 0
BBX 14 35 0 -8
BITMAP
001C
001C
003C
0038
0038
0078
0070
0070
0070
00E0
00E0
00E0
01C0
01C0
01C0
0380
0380
0380
0700
0700
0700
0E00
0E00
0E00
1C00
1C00
1C00
3800
3800
3800
7000
7000
7000
E000
E000
ENDCHAR
STARTCHAR zero
ENCODING 48
SWIDTH 641 0
DWIDTH 24 0
BBX 20 28 2 -1
BITMAP
03FC00
0FFF00
1FFF80
3C03C0
3801E0
7000E0
7000F0
700070
E00070
E00070
E00070
E00070
E00070
E00070
E00070
E00070
E00070
E00070
E00070
F00070
7000F0
7000E0
7801E0
3C03C0
1F0FC0
0FFF80
07FE00
002000
ENDCHAR
STARTCHAR one
ENCODING 49
SWIDTH 418 0
DWIDTH 16 0
BBX 12 27 1 0
BITMAP
03F0
07F0
0770
0F70
0E70
1E70
1C70
3870
3870
7070
F070
E070
0070
0070
0070
0070
0070
0070
0070
0070
0070
0070
0070
0070
0070
0070
0070
ENDCHAR
STARTCHAR two
ENCODING 50
SWIDTH 603 0
DWIDTH 23 0
BBX 19 27 2 0
BITMAP
03FC00
0FFF00
1FFF80
3C07C0
7801C0
7001E0
F000E0
E000E0
E000E0
0000E0
0000E0
0001E0
0003C0
000780
003F00
01FE00
07F800
1FC000
3E0000
780000
700000
E00000
E00000
E00000
FFFFE0
FFFFE0
FFFFE0
ENDCHAR
STARTCHAR three
ENCODING 51
SWIDTH 604 0
DWIDTH 23 0
BBX 19 28 2 -1
BITMAP
FFFFE0
FFFFE0
FFFFE0
0000E0
0003E0
0007C0
001F00
007C00
00F800
03E000
07C000
078000
07FE00
07FF80
0007C0
0001C0
0001E0
0000E0
E000E0
E000E0
E000E0
E001E0
F001C0
7803C0
3F1F80
1FFF00
07FE00
00E000
ENDCHAR
STARTCHAR four
ENCODING 52
SWIDTH 625 0
DWIDTH 24 0
BBX 22 27 1 0
BITMAP
001F80
001F80
003B80
007B80
007380
00E380
01E380
01C380
03C380
038380
070380
0F0380
0E0380
1C0380
3C0380
380380
700380
F00380
E00380
FFFFFC
FFFFFC
FFFFFC
000380
000380
000380
000380
000380
ENDCHAR
STARTCHAR five
ENCODING 53
SWIDTH 599 0
DWIDTH 23 0
BBX 19 28 2 -1
BITMAP
7FFFC0
7FFFC0
7FFFC0
700000
700000
700000
700000
700000
700000
70F800
73FE00
77FF00
7E0780
7C03C0
7801C0
0001E0
0000E0
0000E0
E000E0
E000E0
E000E0
F001C0
7001C0
7803C0
3F1F80
1FFF00
07FC00
006000
ENDCHAR
STARTCHAR six
ENCODING 54
SWIDTH 612 0
DWIDTH 23 0
BBX 19 28 2 -1
BITMAP
03FC00
0FFF00
1FFF80
3C03C0
7801C0
7001E0
7000E0
E000E0
E00000
E00000
E3FE00
E7FF00
EF0F80
FC03C0
F801E0
F000E0
F000E0
E000E0
E000E0
E000E0
F000E0
7000E0
7801E0
3C03C0
3F1F80
1FFF00
07FE00
006000
ENDCHAR
STARTCHAR seven
ENCODING 55
SWIDTH 564 0
DWIDTH 21 0
BBX 19 27 1 0
BITMAP
FFFFE0
FFFFE0
FFFFE0
0000E0
0000E0
0001C0
0003C0
000380
000780
000700
000F00
000E00
001E00
003C00
003800
007800
007000
00F000
00E000
01E000
01C000
03C000
078000
070000
070000
070000
070000
ENDCHAR
STARTCHAR eight
ENCODING 56
SWIDTH 623 0
DWIDTH 24 0
BBX 20 28 2 -1
BITMAP
03FC00
1FFF00
3FFFC0
7C03C0
7001E0
F000E0
E000E0
E000E0
E000E0
7000E0
7801C0
3E07C0
0FFF00
07FE00
3FFF80
7803C0
F000E0
E000F0
E00070
E00070
E00070
E00070
F000E0
7801E0
7E0FC0
3FFF80
0FFE00
00C000
ENDCHAR
STARTCHAR nine
ENCODING 57
SWIDTH 612 0
DWIDTH 23 0
BBX 19 28 2 -1
BITMAP
03F800
0FFE00
3FFF80
3C0780
7803C0
F001C0
E000E0
E000E0
E000E0
E000E0
E000E0
E001E0
F001E0
7803E0
3C07E0
1FFEE0
0FFCE0
03F0E0
0000E0
E000E0
E000E0
F001E0
7001C0
7803C0
3E1F80
1FFF00
0FFC00
004000
ENDCHAR
STARTCHAR colon
ENCODING 58
SWIDTH 253 0
DWIDTH 10 0
BBX 5 20 2 -1
BITMAP
30
78
F8
F8
78
20
00
00
00
00
00
00
00
00
30
78
F8
F8
78
20
ENDCHAR
STARTCHAR semicolon
ENCODING 59
SWIDTH 253 0
DWIDTH 10 0
BBX 5 24 2 -5
BITMAP
30
78
F8
F8
78
20
00
00
00
00
00
00
00
00
30
78
F8
F8
78
18
18
18
78
70
ENDCHAR
STARTCHAR less
ENCODING 60
SWIDTH 620 0
DWIDTH 24 0
BBX 16 17 4 5
BITMAP
0001
0007
003F
00FF
07F8
1FE0
FF00
F800
E000
F000
FE00
3FC0
0FF0
01FE
007F
000F
0003
ENDCHAR
STARTCHAR equal
ENCODING 61
SWIDTH 620 0
DWIDTH 24 0
BBX 16 9 4 9
BITMAP
FFFF
FFFF
FFFF
0000
0000
0000
FFFF
FFFF
FFFF
ENDCHAR
STARTCHAR greater
ENCODING 62
SWIDTH 620 0
DWIDTH 24 0
BBX 16 17 4 5
BITMAP
8000
E000
F800
FF00
3FC0
07F8
00FE
003F
0007
001F
007F
03FC
1FE0
7F80
FC00
F000
8000
ENDCHAR
STARTCHAR question
ENCODING 63
SWIDTH 580 0
DWIDTH 22 0
BBX 18 28 2 -1
BITMAP
07F800
1FFE00
3FFF00
780780
F003C0
E001C0
E001C0
E001C0
E001C0
0001C0
0003C0
000780
001F00
007E00
00FC00
01E000
01C000
01C000
01C000
01C000
000000
000000
00C000
03E000
03E000
03E000
01E000
008000
ENDCHAR
STARTCHAR at
ENCODING 64
SWIDTH 1026 0
DWIDTH 39 0
BBX 33 35 3 -8
BITMAP
0007F80000
007FFF0000
01FFFFC000
03F003F000
07C000F800
0F00003C00
1E00001C00
3C00000E00
3803C00F00
780FF38700
703FFB8700
703C1F8380
E0780F8380
E070078380
E0E0078380
E0E0038380
E0E0038380
E0E0038380
E0E0038380
E0E0038380
E0E0038380
E070078380
E070078780
70780F8700
703E3BFF00
781FFBFE00
380FF1F800
3C00000000
1E00000000
0F00000000
07C0000000
03F8000000
00FFFF8000
003FFF8000
0000FF8000
ENDCHAR
STARTCHAR A
ENCODING 65
SWIDTH 630 0
DWIDTH 24 0
BBX 22 27 1 0
BITMAP
00FC00
00FC00
01FC00
01CE00
01CE00
01CE00
038F00
038700
038700
078780
070380
070380
0F03C0
0E01C0
0E01C0
1E01C0
1C00E0
1FFFE0
1FFFE0
3FFFF0
380070
380070
780078
700038
700038
F0003C
E0001C
ENDCHAR
STARTCHAR B
ENCODING 66
SWIDTH 661 0
DWIDTH 25 0
BBX 21 27 2 0
BITMAP
FFFE00
FFFFC0
FFFFE0
0E03F0
0E0078
0E0078
0E0038
0E0038
0E0038
0E0038
0E0070
0E00F0
0FFFC0
0FFF80
0FFFC0
0E01F0
0E0070
0E0038
0E0038
0E0038
0E0038
0E0038
0E0078
0E00F0
FFFFF0
FFFFC0
FFFF00
ENDCHAR
STARTCHAR C
ENCODING 67
SWIDTH 642 0
DWIDTH 24 0
BBX 20 28 2 -1
BITMAP
01FE00
0FFF80
1FFFC0
3E03E0
3C01E0
7800F0
700070
700070
F00070
F00070
E00000
E00000
E00000
E00000
E00000
E00000
E00000
E00070
F00070
F00070
700070
7800F0
7800F0
3C01E0
1F8FC0
0FFF80
03FF00
006000
ENDCHAR
STARTCHAR D
ENCODING 68
SWIDTH 663 0
DWIDTH 25 0
BBX 21 27 2 0
BITMAP
FFF000
FFFF00
FFFFC0
0E1FE0
0E01E0
0E00F0
0E0070
0E0078
0E0038
0E0038
0E0038
0E0038
0E0038
0E0038
0E0038
0E0038
0E0038
0E0038
0E0038
0E0038
0E0078
0E0070
0E00F0
0E03E0
FFFFC0
FFFF80
FFFC00
ENDCHAR
STARTCHAR E
ENCODING 69
SWIDTH 563 0
DWIDTH 21 0
BBX 17 27 3 0
BITMAP
FFFF00
FFFF00
FFFF00
E00000
E00000
E00000
E00000
E00000
E00000
E00000
E00000
E00000
FFFE00
FFFE00
FFFE00
E00000
E00000
E00000
E00000
E00000
E00000
E00000
E00000
E00000
FFFF80
FFFF80
FFFF80
ENDCHAR
STARTCHAR F
ENCODING 70
SWIDTH 540 0
DWIDTH 21 0
BBX 16 27 3 0
BITMAP
FFFF
FFFF
FFFF
E000
E000
E000
E000
E000
E000
E000
E000
E000
FFFE
FFFE
FFFE
E000
E000
E000
E000
E000
E000
E000
E000
E000
E000
E000
E000
ENDCHAR
STARTCHAR G
ENCODING 71
SWIDTH 660 0
DWIDTH 25 0
BBX 20 28 2 -1
BITMAP
01FE00
0FFF80
1FFFC0
3E03E0
3C01E0
7800F0
700070
700070
F00070
F00070
E00000
E00000
E00000
E00000
E07FF0
E07FF0
E07FF0
E00070
F00070
F00070
700070
7800F0
7800F0
3C01F0
1F8FF0
0FFF70
07FE70
003000
ENDCHAR
STARTCHAR H
ENCODING 72
SWIDTH 656 0
DWIDTH 25 0
BBX 19 27 3 0
BITMAP
E000E0
E000E0
E000E0
E000E0
E000E0
E000E0
E000E0
E000E0
E000E0
E000E0
E000E0
E000E0
FFFFE0
FFFFE0
FFFFE0
E000E0
E000E0
E000E0
E000E0
E000E0
E000E0
E000E0
E000E0
E000E0
E000E0
E000E0
E000E0
ENDCHAR
STARTCHAR I
ENCODING 73
SWIDTH 244 0
DWIDTH 9 0
BBX 3 27 3 0
BITMAP
E0
E0
E0
E0
E0
E0
E0
E0
E0
E0
E0
E0
E0
E0
E0
E0
E0
E0
E0
E0
E0
E0
E0
E0
E0
E0
E0
ENDCHAR
STARTCHAR J
ENCODING 74
SWIDTH 594 0
DWIDTH 23 0
BBX 19 28 2 -1
BITMAP
00FFE0
00FFE0
00FFE0
000700
000700
000700
000700
000700
000700
000700
000700
000700
000700
000700
000700
000700
000700
E00700
E00700
E00700
E00700
E00F00
F00F00
F01E00
7E7E00
3FFC00
1FF000
010000
ENDCHAR
STARTCHAR K
ENCODING 75
SWIDTH 610 0
DWIDTH 23 0
BBX 20 27 3 0
BITMAP
E001E0
E003C0
E00780
E00F00
E01E00
E03C00
E07800
E0F000
E1E000
E3C000
E78000
EF0000
FE0000
FC0000
FE0000
EF0000
E78000
E3C000
E1E000
E0F000
E07800
E03C00
E01E00
E00F00
E00780
E003C0
E001F0
ENDCHAR
STARTCHAR L
ENCODING 76
SWIDTH 546 0
DWIDTH 21 0
BBX 17 27 3 0
BITMAP
E00000
E00000
E00000
E00000
E00000
E00000
E00000
E00000
E00000
E00000
E00000
E00000
E00000
E00000
E00000
E00000
E00000
E00000
E00000
E00000
E00000
E00000
E00000
E00000
FFFF80
FFFF80
FFFF80
ENDCHAR
STARTCHAR M
ENCODING 77
SWIDTH 865 0
DWIDTH 33 0
BBX 27 27 3 0
BITMAP
FC0007E0
FC000FE0
EE000EE0
EE000EE0
EE000EE0
E7001CE0
E7001CE0
E7001CE0
E7003CE0
E38038E0
E38038E0
E38038E0
E1C070E0
E1C070E0
E1C070E0
E1C0F0E0
E0E0E0E0
E0E0E0E0
E0E0E0E0
E071C0E0
E071C0E0
E071C0E0
E07380E0
E03B80E0
E03B80E0
E03F80E0
E01F00E0
ENDCHAR
STARTCHAR N
ENCODING 78
SWIDTH 664 0
DWIDTH 25 0
BBX 19 27 3 0
BITMAP
FC00E0
FE00E0
EE00E0
EE00E0
E700E0
E700E0
E780E0
E380E0
E380E0
E3C0E0
E1C0E0
E1C0E0
E0E0E0
E0E0E0
E0F0E0
E070E0
E070E0
E078E0
E038E0
E038E0
E01CE0
E01CE0
E01EE0
E00EE0
E00EE0
E00FE0
E007E0
ENDCHAR
STARTCHAR O
ENCODING 79
SWIDTH 669 0
DWIDTH 25 0
BBX 21 28 2 -1
BITMAP
01FE00
0FFF80
1FFFC0
3E03E0
3C00F0
780070
700078
700038
F00038
F00038
E00038
E00038
E00038
E00038
E00038
E00038
E00038
E00038
F00038
F00038
700078
780070
7800F0
3C01E0
1F87E0
0FFF80
03FF00
006000
ENDCHAR
STARTCHAR P
ENCODING 80
SWIDTH 601 0
DWIDTH 23 0
BBX 19 27 3 0
BITMAP
FFE000
FFFE00
FFFF00
E01F80
E003C0
E001C0
E001C0
E001E0
E001E0
E001E0
E001C0
E003C0
E007C0
FFFF80
FFFF00
FFFC00
E00000
E00000
E00000
E00000
E00000
E00000
E00000
E00000
E00000
E00000
E00000
ENDCHAR
STARTCHAR Q
ENCODING 81
SWIDTH 669 0
DWIDTH 25 0
BBX 21 33 2 -6
BITMAP
01FE00
0FFF80
1FFFC0
3E03E0
3C00F0
780070
700078
700038
F00038
F00038
E00038
E00038
E00038
E00038
E00038
E00038
E00038
E00038
F00038
F00038
700078
780070
7800F0
3C01E0
1F87E0
0FFF80
03FF00
007000
007000
007000
007800
007F00
003F00
ENDCHAR
STARTCHAR R
ENCODING 82
SWIDTH 631 0
DWIDTH 24 0
BBX 19 27 3 0
BITMAP
FFF000
FFFF00
FFFF80
E00FC0
E003E0
E001E0
E000E0
E000E0
E000E0
E000E0
E000E0
E001C0
E00380
FFFF00
FFFE00
FFFF80
E003C0
E001C0
E001C0
E001C0
E001C0
E001C0
E001C0
E001C0
E001C0
E001C0
E001C0
ENDCHAR
STARTCHAR S
ENCODING 83
SWIDTH 613 0
DWIDTH 23 0
BBX 19 28 2 -1
BITMAP
07F800
1FFF00
3FFF80
7C07C0
7001C0
7001E0
F000E0
F000E0
7000E0
7000E0
7C0000
3F0000
1FF000
07FE00
00FF80
000FC0
0003E0
E000E0
E000E0
E000E0
E000E0
F000E0
7001E0
7803C0
3F0FC0
1FFF80
07FE00
004000
ENDCHAR
STARTCHAR T
ENCODING 84
SWIDTH 588 0
DWIDTH 22 0
BBX 20 27 1 0
BITMAP
FFFFF0
FFFFF0
FFFFF0
007000
007000
007000
007000
007000
007000
007000
007000
007000
007000
007000
007000
007000
007000
007000
007000
007000
007000
007000
007000
007000
007000
007000
007000
ENDCHAR
STARTCHAR U
ENCODING 85
SWIDTH 666 0
DWIDTH 25 0
BBX 20 28 3 -1
BITMAP
E000F0
E000F0
E000F0
E000F0
E000F0
E000F0
E000F0
E000F0
E000F0
E000F0
E000F0
E000F0
E000F0
E000F0
E000F0
E000F0
E000F0
E000F0
E000E0
E000E0
E000E0
F000E0
7001E0
7803C0
3F1F80
1FFF00
07FE00
00E000
ENDCHAR
STARTCHAR V
ENCODING 86
SWIDTH 619 0
DWIDTH 24 0
BBX 22 27 1 0
BITMAP
E0003C
F00038
700038
700078
700070
780070
3800F0
3800E0
3C00E0
1C00E0
1C01E0
1E01C0
0E01C0
0E03C0
0E0380
0F0380
070380
070700
078700
038700
038F00
038E00
01CE00
01DE00
01DC00
00FC00
00FC00
ENDCHAR
STARTCHAR W
ENCODING 87
SWIDTH 875 0
DWIDTH 33 0
BBX 31 27 1 0
BITMAP
F007E00E
7007E01E
700EE01E
700EE01C
700EE01C
700E701C
780E701C
381C701C
381C703C
381C7038
381C3838
381C3838
38383838
1C383838
1C383878
1C381870
1C381C70
1C701C70
1C701C70
0E701C70
0E700C70
0E700EE0
0EE00EE0
0EE00EE0
0EE00EE0
0FE007E0
07E007E0
ENDCHAR
STARTCHAR X
ENCODING 88
SWIDTH 638 0
DWIDTH 24 0
BBX 22 27 1 0
BITMAP
F0003C
780078
380078
3C00F0
1E00E0
0E01E0
0F03C0
070380
038780
03CF00
01CE00
01FE00
00FC00
007C00
00FC00
00FE00
01CE00
03CF00
038780
078380
0F03C0
0E01E0
1E01E0
3C00F0
380070
780078
F0003C
ENDCHAR
STARTCHAR Y
ENCODING 89
SWIDTH 610 0
DWIDTH 23 0
BBX 22 27 1 0
BITMAP
E0003C
F00078
700070
7800F0
3800E0
3C01E0
1E01C0
0E03C0
0F0780
070700
078F00
038E00
03DE00
01FC00
00FC00
00F800
007000
007000
007000
007000
007000
007000
007000
007000
007000
007000
007000
ENDCHAR
STARTCHAR Z
ENCODING 90
SWIDTH 577 0
DWIDTH 22 0
BBX 18 27 2 0
BITMAP
FFFFC0
FFFFC0
FFFFC0
0001C0
0003C0
000780
000700
000F00
001E00
003C00
007800
007800
00F000
01E000
03C000
038000
078000
0F0000
1E0000
3C0000
3C0000
780000
F00000
E00000
FFFFC0
FFFFC0
FFFFC0
ENDCHAR
STARTCHAR bracketleft
ENCODING 91
SWIDTH 335 0
DWIDTH 13 0
BBX 9 37 3 -9
BITMAP
7F80
FF80
F000
E000
E000
E000
E000
E000
E000
E000
E000
E000
E000
E000
E000
E000
E000
E000
E000
E000
E000
E000
E000
E000
E000
E000
E000
E000
E000
E000
E000
E000
E000
E000
FF80
7F80
7F80
ENDCHAR
STARTCHAR backslash
ENCODING 92
SWIDTH 370 0
DWIDTH 14 0
BBX 14 35 0 -8
BITMAP
E000
E000
7000
7000
7000
3800
3800
3800
1C00
1C00
1C00
0E00
0E00
0E00
0F00
0700
0700
0780
0380
0380
0380
01C0
01C0
01C0
00E0
00E0
00E0
0070
0070
0070
0038
0038
0038
001C
001C
ENDCHAR
STARTCHAR bracketright
ENCODING 93
SWIDTH 335 0
DWIDTH 13 0
BBX 9 37 1 -9
BITMAP
FF00
FF00
0780
0380
0380
0380
0380
0380
0380
0380
0380
0380
0380
0380
0380
0380
0380
0380
0380
0380
0380
0380
0380
0380
0380
0380
0380
0380
0380
0380
0380
0380
0380
0380
FF80
FF00
FE00
ENDCHAR
STARTCHAR asciicircum
ENCODING 94
SWIDTH 620 0
DWIDTH 24 0
BBX 18 11 3 16
BITMAP
03E000
03F000
07F000
0F3800
0E3C00
1E1C00
1C1E00
380F00
780700
700780
F003C0
ENDCHAR
STARTCHAR underscore
ENCODING 95
SWIDTH 620 0
DWIDTH 24 0
BBX 18 3 3 -5
BITMAP
FFFFC0
FFFFC0
FFFFC0
ENDCHAR
STARTCHAR grave
ENCODING 96
SWIDTH 280 0
DWIDTH 11 0
BBX 7 6 2 21
BITMAP
F0
70
38
38
1C
0E
ENDCHAR
STARTCHAR a
ENCODING 97
SWIDTH 575 0
DWIDTH 22 0
BBX 19 20 2 -1
BITMAP
07F000
1FFC00
3F7E00
780E00
700700
700700
000700
000700
0FFF00
3FFF00
7FFF00
F00700
E00700
E00700
E00F00
F01F00
783FE0
7FF3E0
1FE1E0
020000
ENDCHAR
STARTCHAR b
ENCODING 98
SWIDTH 644 0
DWIDTH 24 0
BBX 19 28 3 -1
BITMAP
E00000
E00000
E00000
E00000
E00000
E00000
E00000
E00000
E1FC00
E7FF00
EFFF80
FC07C0
F803C0
F001E0
F000E0
E000E0
E000E0
E000E0
E000E0
E000E0
E000E0
F001E0
F001C0
F803C0
EF0F80
E7FF00
E3FE00
002000
ENDCHAR
STARTCHAR c
ENCODING 99
SWIDTH 598 0
DWIDTH 23 0
BBX 19 20 2 -1
BITMAP
03F800
0FFE00
1FFF00
3C0780
7803C0
7001C0
7001E0
E00100
E00000
E00000
E00000
E00000
F000E0
7001C0
7801C0
3C0380
3F0F80
0FFF00
07FC00
004000
ENDCHAR
STARTCHAR d
ENCODING 100
SWIDTH 644 0
DWIDTH 24 0
BBX 19 28 2 -1
BITMAP
0000E0
0000E0
0000E0
0000E0
0000E0
0000E0
0000E0
0000E0
03F8E0
0FFCE0
1FFEE0
3C07E0
7801E0
7001E0
7000E0
E000E0
E000E0
E000E0
E000E0
E000E0
F000E0
7000E0
7801E0
3C03E0
3F0FE0
1FFEE0
07F8E0
004000
ENDCHAR
STARTCHAR e
ENCODING 101
SWIDTH 592 0
DWIDTH 23 0
BBX 18 20 2 -1
BITMAP
03F800
0FFE00
1FFF00
3C0780
780380
7001C0
7001C0
E001C0
FFFFC0
FFFFC0
E00000
E00000
F00000
700100
7801C0
3C0380
3E0F80
1FFF00
07FC00
00C000
ENDCHAR
STARTCHAR f
ENCODING 102
SWIDTH 442 0
DWIDTH 17 0
BBX 15 27 1 0
BITMAP
00FC
03FC
03FC
0380
0380
0380
0380
0380
FFFE
FFFE
FFFE
0380
0380
0380
0380
0380
0380
0380
0380
0380
0380
0380
0380
0380
0380
0380
0380
ENDCHAR
STARTCHAR g
ENCODING 103
SWIDTH 642 0
DWIDTH 24 0
BBX 19 27 2 -8
BITMAP
03F8E0
0FFCE0
1FFEE0
3C07E0
7801E0
7001E0
7000E0
E000E0
E000E0
E000E0
E000E0
E000E0
7000E0
7001E0
7801E0
3C03E0
1FFEE0
0FFCE0
07F8E0
0000E0
0000E0
0000E0
0000E0
0000E0
1FFFE0
1FFFE0
1FFF80
ENDCHAR
STARTCHAR h
ENCODING 104
SWIDTH 613 0
DWIDTH 23 0
BBX 17 27 3 0
BITMAP
E00000
E00000
E00000
E00000
E00000
E00000
E00000
E00000
E1F800
E7FE00
EFFF00
FC0F00
F80780
F00380
F00380
E00380
E00380
E00380
E00380
E00380
E00380
E00380
E00380
E00380
E00380
E00380
E00380
ENDCHAR
STARTCHAR i
ENCODING 105
SWIDTH 245 0
DWIDTH 9 0
BBX 5 26 2 0
BITMAP
70
F8
F8
78
20
00
00
70
70
70
70
70
70
70
70
70
70
70
70
70
70
70
70
70
70
70
ENDCHAR
STARTCHAR j
ENCODING 106
SWIDTH 247 0
DWIDTH 9 0
BBX 8 34 -1 -8
BITMAP
0E
0F
1F
0F
04
00
00
0E
0E
0E
0E
0E
0E
0E
0E
0E
0E
0E
0E
0E
0E
0E
0E
0E
0E
0E
0E
0E
0E
0E
0E
FE
FE
F8
ENDCHAR
STARTCHAR k
ENCODING 107
SWIDTH 538 0
DWIDTH 20 0
BBX 17 27 3 0
BITMAP
E00000
E00000
E00000
E00000
E00000
E00000
E00000
E00000
E00F00
E01E00
E03C00
E07800
E0F000
E1E000
E78000
EF0000
FE0000
FC0000
FE0000
EF0000
E78000
E1E000
E0F000
E07800
E03C00
E01E00
E00F80
ENDCHAR
STARTCHAR l
ENCODING 108
SWIDTH 245 0
DWIDTH 9 0
BBX 3 27 3 0
BITMAP
E0
E0
E0
E0
E0
E0
E0
E0
E0
E0
E0
E0
E0
E0
E0
E0
E0
E0
E0
E0
E0
E0
E0
E0
E0
E0
E0
ENDCHAR
STARTCHAR m
ENCODING 109
SWIDTH 860 0
DWIDTH 33 0
BBX 27 19 3 0
BITMAP
E3E03E00
E7F8FF80
EFFDFFC0
F81F83C0
F01F01C0
F00E00E0
E00E00E0
E00E00E0
E00E00E0
E00E00E0
E00E00E0
E00E00E0
E00E00E0
E00E00E0
E00E00E0
E00E00E0
E00E00E0
E00E00E0
E00E00E0
ENDCHAR
STARTCHAR n
ENCODING 110
SWIDTH 613 0
DWIDTH 23 0
BBX 17 19 3 0
BITMAP
E1F800
E7FE00
EFFF00
EC0F00
F80780
F00380
F00380
E00380
E00380
E00380
E00380
E00380
E00380
E00380
E00380
E00380
E00380
E00380
E00380
ENDCHAR
STARTCHAR o
ENCODING 111
SWIDTH 618 0
DWIDTH 23 0
BBX 19 20 2 -1
BITMAP
03F800
0FFE00
1FFF80
3C0780
7803C0
7001E0
7000E0
E000E0
E000E0
E000E0
E000E0
E000E0
F000E0
7001E0
7801C0
3C03C0
3F0F80
1FFF00
07FC00
006000
ENDCHAR
STARTCHAR p
ENCODING 112
SWIDTH 644 0
DWIDTH 24 0
BBX 19 27 3 -8
BITMAP
E1FC00
E7FF00
EFFF80
FC07C0
F803C0
F001E0
F000E0
E000E0
E000E0
E000E0
E000E0
E000E0
E000E0
F001E0
F001C0
F803C0
EF0F80
E7FF00
E3FE00
E06000
E00000
E00000
E00000
E00000
E00000
E00000
E00000
ENDCHAR
STARTCHAR q
ENCODING 113
SWIDTH 644 0
DWIDTH 24 0
BBX 19 27 2 -8
BITMAP
03F8E0
0FFCE0
1FFEE0
3C07E0
7801E0
7001E0
7000E0
E000E0
E000E0
E000E0
E000E0
E000E0
F000E0
7000E0
7801E0
3C03E0
3F0FE0
1FFEE0
07F8E0
0040E0
0000E0
0000E0
0000E0
0000E0
0000E0
0000E0
0000E0
ENDCHAR
STARTCHAR r
ENCODING 114
SWIDTH 377 0
DWIDTH 14 0
BBX 10 19 3 0
BITMAP
E3C0
EFC0
EFC0
FC00
F000
F000
E000
E000
E000
E000
E000
E000
E000
E000
E000
E000
E000
E000
E000
ENDCHAR
STARTCHAR s
ENCODING 115
SWIDTH 527 0
DWIDTH 20 0
BBX 16 20 2 -1
BITMAP
0FE0
3FF8
3E7C
701E
700E
7006
7000
7C00
3FC0
1FF8
03FE
001F
2007
E007
F007
7007
7C1E
3FFE
0FF8
01C0
ENDCHAR
STARTCHAR t
ENCODING 116
SWIDTH 460 0
DWIDTH 17 0
BBX 15 25 1 0
BITMAP
0380
0380
0380
0380
0380
0380
FFFE
FFFE
FFFE
0380
0380
0380
0380
0380
0380
0380
0380
0380
0380
0380
0380
0380
03FC
03FC
01FC
ENDCHAR
STARTCHAR u
ENCODING 117
SWIDTH 612 0
DWIDTH 23 0
BBX 17 19 3 0
BITMAP
E00380
E00380
E00380
E00380
E00380
E00380
E00380
E00380
E00380
E00380
E00380
E00380
E00380
E00780
F00780
700F80
7E7B80
3FF380
0FE380
ENDCHAR
STARTCHAR v
ENCODING 118
SWIDTH 539 0
DWIDTH 20 0
BBX 18 19 1 0
BITMAP
E001C0
7001C0
7003C0
700380
380380
380700
380700
1C0700
1C0E00
1E0E00
0E0E00
0E1C00
071C00
071C00
073800
03B800
03B800
03F000
01F000
ENDCHAR
STARTCHAR w
ENCODING 119
SWIDTH 801 0
DWIDTH 30 0
BBX 26 19 2 0
BITMAP
E01F01C0
E03F01C0
E03F01C0
703B01C0
703381C0
70738380
70738380
70718380
3861C380
38E1C380
38E1C300
38E0C700
38C0E700
18C0E700
1DC0E700
1DC06600
1DC07E00
1F807E00
0F807E00
ENDCHAR
STARTCHAR x
ENCODING 120
SWIDTH 593 0
DWIDTH 23 0
BBX 19 19 2 0
BITMAP
F001E0
7003C0
780780
3C0700
1E0E00
0E1E00
073C00
07B800
03F000
01F000
03F000
03F800
073C00
0F1E00
1E0E00
3C0700
380780
7003C0
F001E0
ENDCHAR
STARTCHAR y
ENCODING 121
SWIDTH 612 0
DWIDTH 23 0
BBX 17 27 3 -8
BITMAP
E00380
E00380
E00380
E00380
E00380
E00380
E00380
E00380
E00380
E00380
E00380
E00380
E00380
E00780
F00780
700F80
7E7B80
3FFB80
0FE380
000380
000380
000380
000380
000380
3FFF80
3FFF00
3FFC00
ENDCHAR
STARTCHAR z
ENCODING 122
SWIDTH 521 0
DWIDTH 20 0
BBX 16 19 2 0
BITMAP
7FFE
7FFE
7FFE
000E
001E
003C
0078
00F0
01E0
03C0
0780
0F00
1E00
3C00
7800
F000
FFFF
FFFF
FFFF
ENDCHAR
STARTCHAR braceleft
ENCODING 123
SWIDTH 432 0
DWIDTH 16 0
BBX 15 37 1 -9
BITMAP
01FE
03FE
0380
0380
0380
0380
0380
0380
0380
0380
0380
0380
0380
0380
0380
0380
0700
FF00
FC00
FF00
0780
0380
0380
0380
0380
0380
0380
0380
0380
0380
0380
0380
0380
0380
03FE
03FE
01FE
ENDCHAR
STARTCHAR bar
ENCODING 124
SWIDTH 240 0
DWIDTH 9 0
BBX 3 40 3 -9
BITMAP
E0
E0
E0
E0
E0
E0
E0
E0
E0
E0
E0
E0
E0
E0
E0
E0
E0
E0
E0
E0
E0
E0
E0
E0
E0
E0
E0
E0
E0
E0
E0
E0
E0
E0
E0
E0
E0
E0
E0
E0
ENDCHAR
STARTCHAR braceright
ENCODING 125
SWIDTH 432 0
DWIDTH 16 0
BBX 14 37 1 -9
BITMAP
FF00
FF00
0780
0380
0380
0380
0380
0380
0380
0380
0380
0380
0380
0380
0380
0380
0380
01FC
007C
03FC
0380
0380
0380
0380
0380
0380
0380
0380
0380
0380
0380
0380
0380
0380
FF80
FF00
FE00
ENDCHAR
STARTCHAR asciitilde
ENCODING 126
SWIDTH 620 0
DWIDTH 24 0
BBX 17 7 3 10
BITMAP
020000
0F8100
1FC780
3FEF00
F8FE00
70FC00
407800
ENDCHAR
ENDFONT
